<svg width="48" height="48" viewBox="0 0 48 48" fill="none" xmlns="http://www.w3.org/2000/svg">
    <path d="M24 0C37.2548 0 48 10.7452 48 24C48 37.2548 37.2548 48 24 48C10.7452 48 0 37.2548 0 24C0 10.7452 10.7452 0 24 0ZM23.9658 25.9648H29.6885C29.5802 26.864 29.026 28.1895 27.8164 29.1514L27.5654 29.3389C26.6886 29.9512 25.5117 30.3788 23.9658 30.3789C21.2196 30.3789 18.8884 28.5642 18.0576 26.0566L14.6992 28.668C16.407 32.0653 19.9041 34.4004 23.9658 34.4004C26.5943 34.4003 28.8273 33.5873 30.5127 32.1719L30.8428 31.8809C32.8042 30.0667 33.9345 27.3974 33.9346 24.2314C33.9346 23.3763 33.8658 22.7516 33.7158 22.1045H23.9658V25.9648ZM23.9658 13.5996C20.031 13.5996 16.6157 15.7909 14.8535 19.0166L14.6885 19.332C13.9847 20.7418 13.5801 22.3245 13.5801 24C13.5801 25.6755 13.9847 27.2582 14.6885 28.668L18.0576 26.0566C17.8384 25.4096 17.7109 24.7164 17.7109 24C17.7109 23.373 17.8082 22.7636 17.9717 22.1875L18.0459 21.9434C18.8882 19.4358 21.2196 17.6211 23.9658 17.6211C25.9155 17.6212 27.2305 18.4651 27.9805 19.1699L30.9121 16.3037C29.1121 14.6282 26.7696 13.5997 23.9658 13.5996Z" fill="white"/>
</svg>
